# xmcd CD database file
#
# Track frame offsets:
#	150
#	46120
#	101310
#	144319
#	192035
#
# Disc length: 3819 seconds
#
# Revision: 2
# Processed by: cddbd v1.5.2PL0 Copyright (c) Steve Scherf et al.
# Submitted via: CDex 1.51
#
DISCID=330ee905
DTITLE=olika artister - KOPAlectric vol 2
DYEAR=2006
DGENRE=Jazz
TTITLE0=LIM and Marc Ducret - Gettin' Tage
TTITLE1=LIM and Marc Ducret - Nephilim
TTITLE2=LIM and Marc Ducret - Shulaffel
TTITLE3=Elektra Hyde - Elektra
TTITLE4=Anders Nilsson's Aorta - Riding the Maelström
EXTD=YEAR: 2006
EXTT0=
EXTT1=
EXTT2=
EXTT3=
EXTT4=
PLAYORDER=
